<svg t="1782295406357" class="icon" viewBox="0 0 1204 1024" version="1.1" xmlns="http://www.w3.org/2000/svg" p-id="7487" width="200" height="200"><path d="M1144.470588 722.823529H60.235294a60.235294 60.235294 0 0 1-60.235294-60.235294V60.235294a60.235294 60.235294 0 0 1 60.235294-60.235294h1084.235294a60.235294 60.235294 0 0 1 60.235294 60.235294v602.352941a60.235294 60.235294 0 0 1-60.235294 60.235294z m0-602.352941a60.235294 60.235294 0 0 0-60.235294-60.235294H120.470588a60.235294 60.235294 0 0 0-60.235294 60.235294v421.647059a60.235294 60.235294 0 0 0 60.235294 60.235294h963.764706a60.235294 60.235294 0 0 0 60.235294-60.235294V120.470588zM391.529412 843.294118a30.117647 30.117647 0 0 1 0-60.235294h421.647059a30.117647 30.117647 0 0 1 0 60.235294h-421.647059zM60.235294 903.529412h1084.235294a60.235294 60.235294 0 0 1 0 120.470588H60.235294a60.235294 60.235294 0 0 1 0-120.470588z" fill="#e6e6e6" p-id="7488"></path></svg>
