<svg t="1782295535420" class="icon" viewBox="0 0 1024 1024" version="1.1" xmlns="http://www.w3.org/2000/svg" p-id="11354" width="200" height="200"><path d="M779.946667 974.506667H119.466667c-37.546667 0-68.266667-30.72-68.266667-68.266667V365.226667c0-37.546667 30.72-68.266667 68.266667-68.266667h660.48c37.546667 0 68.266667 30.72 68.266666 68.266667v541.013333c0 37.546667-30.72 68.266667-68.266666 68.266667z" fill="#dbdbdb" opacity=".3" p-id="11355"></path><path d="M896 989.866667h-768c-51.2 0-93.866667-42.666667-93.866667-93.866667v-768C34.133333 76.8 76.8 34.133333 128 34.133333h320.853333c6.826667 0 15.36 3.413333 20.48 8.533334l105.813334 128h320.853333c51.2 0 93.866667 42.666667 93.866667 93.866666v631.466667c0 51.2-42.666667 93.866667-93.866667 93.866667zM128 85.333333C104.106667 85.333333 85.333333 104.106667 85.333333 128v768C85.333333 919.893333 104.106667 938.666667 128 938.666667h768c23.893333 0 42.666667-18.773333 42.666667-42.666667v-631.466667c0-23.893333-18.773333-42.666667-42.666667-42.666666H563.2c-6.826667 0-15.36-3.413333-20.48-8.533334L436.906667 85.333333H128z" fill="#dbdbdb" p-id="11356"></path><path d="M964.266667 491.52h-904.533334c-13.653333 0-25.6-11.946667-25.6-25.6s11.946667-25.6 25.6-25.6h904.533334c13.653333 0 25.6 11.946667 25.6 25.6s-11.946667 25.6-25.6 25.6zM737.28 723.626667H286.72c-13.653333 0-25.6-11.946667-25.6-25.6s11.946667-25.6 25.6-25.6h448.853333c13.653333 0 25.6 11.946667 25.6 25.6s-10.24 25.6-23.893333 25.6z" fill="#dbdbdb" p-id="11357"></path><path d="M803.84 491.52c-13.653333 0-25.6-11.946667-25.6-25.6v-80.213333c0-5.12-3.413333-8.533333-8.533333-8.533334H254.293333c-5.12 0-8.533333 3.413333-8.533333 8.533334v80.213333c0 13.653333-11.946667 25.6-25.6 25.6s-25.6-11.946667-25.6-25.6v-80.213333c0-32.426667 27.306667-59.733333 59.733333-59.733334h515.413334c32.426667 0 59.733333 27.306667 59.733333 59.733334v80.213333c0 13.653333-11.946667 25.6-25.6 25.6z" fill="#dbdbdb" p-id="11358"></path></svg>
