<svg t="1782292349521" class="icon" viewBox="0 0 1024 1024" version="1.1" xmlns="http://www.w3.org/2000/svg" p-id="4244" width="200" height="200"><path d="M213.312 640v170.688H384V896H170.688A42.688 42.688 0 0 1 128 853.312V640h85.312zM896 640v213.312a42.688 42.688 0 0 1-42.688 42.688H640v-85.312h170.688V640H896z m-42.688-512c23.616 0 42.688 19.072 42.688 42.688V384h-85.312V213.312H640V128h213.312zM384 128v85.312H213.312V384H128V170.688C128 147.072 147.072 128 170.688 128H384z" fill="#e6e6e6" p-id="4245"></path></svg>
