<svg t="1782382046861" class="icon" viewBox="0 0 1024 1024" version="1.1" xmlns="http://www.w3.org/2000/svg" p-id="24344" width="200" height="200"><path d="M308.48 995.2a124.16 124.16 0 0 1-64-19.84L58.88 857.6a124.8 124.8 0 0 1-37.12-172.16l240-375.04a128 128 0 0 1 172.16-37.76l183.04 118.4a124.8 124.8 0 0 1 37.12 172.16 32 32 0 1 1-53.76-34.56 64 64 0 0 0-17.92-83.84L400 327.04a64 64 0 0 0-83.84 18.56L74.88 720a60.8 60.8 0 0 0 17.92 83.84L275.84 921.6a59.52 59.52 0 0 0 45.44 8.32 60.16 60.16 0 0 0 38.4-26.24l71.04-110.72a32 32 0 1 1 53.76 34.56L413.44 937.6a124.16 124.16 0 0 1-78.08 54.4 128 128 0 0 1-26.88 3.2z" fill="#dbdbdb" p-id="24345"></path><path d="M656.64 768a124.16 124.16 0 0 1-64-19.84l-185.6-115.2a128 128 0 0 1-37.76-172.16 32 32 0 0 1 53.76 34.56 64 64 0 0 0 18.56 83.84l183.04 117.76a64 64 0 0 0 83.84-18.56L949.12 304a60.8 60.8 0 0 0-17.92-83.84L748.16 103.04a60.8 60.8 0 0 0-83.84 18.56l-71.04 110.08a32 32 0 1 1-53.76-34.56L610.56 86.4a128 128 0 0 1 172.16-37.76l182.4 117.76a124.8 124.8 0 0 1 37.12 172.16L761.6 712.96A128 128 0 0 1 656.64 768z" fill="#dbdbdb" p-id="24346"></path></svg>
